name rise45.9887peak57.8056fall74.9286.mot
datacolumns 19
datarows 11
range 14.80660900000000 14.82327700000000
endheader
time	ground_force1_vx	ground_force1_vy	ground_force1_vz	ground_force1_px	ground_force1_py	ground_force1_pz	ground_force2_vx	ground_force2_vy	ground_force2_vz	ground_force2_px	ground_force2_py	ground_force2_pz	ground_torque1_x	ground_torque1_y	ground_torque1_z	ground_torque2_x	ground_torque2_y	ground_torque2_z	
14.80660900000000	-5.76155100000000	42.42057700000000	-7.87482400000000	0.29783600000000	0.00000000000000	0.11041700000000	-51.26224600000000	787.49922900000001	-56.74272500000000	0.11011600000000	0.00000000000000	-0.06894500000000	0.00000000000000	-4.76855100000000	0.00000000000000	0.00000000000000	-17.97295900000000	0.00000000000000	
14.80829400000000	-6.30983800000000	49.73980500000000	-8.85579200000000	0.30334400000000	0.00000000000000	0.11112100000000	-51.87512900000000	784.92734299999995	-56.36004900000000	0.10944400000000	0.00000000000000	-0.06885200000000	0.00000000000000	-5.44248200000000	0.00000000000000	0.00000000000000	-17.90473200000000	0.00000000000000	
14.80995200000000	-6.74368800000000	57.15570900000000	-9.74654600000000	0.30830400000000	0.00000000000000	0.11177100000000	-52.50234100000000	782.21840999999995	-55.94880300000000	0.10877600000000	0.00000000000000	-0.06875500000000	0.00000000000000	-6.07693500000000	0.00000000000000	0.00000000000000	-17.83647800000000	0.00000000000000	
14.81161200000000	-7.04610700000000	64.57289600000000	-10.52588900000000	0.31280300000000	0.00000000000000	0.11237300000000	-53.14326400000000	779.36983899999996	-55.50890300000000	0.10811200000000	0.00000000000000	-0.06865300000000	0.00000000000000	-6.65775300000000	0.00000000000000	0.00000000000000	-17.76816900000000	0.00000000000000	
14.81327400000000	-7.20645200000000	71.91902800000000	-11.17959200000000	0.31691100000000	0.00000000000000	0.11293600000000	-53.79717500000000	776.37903100000005	-55.04030700000000	0.10745400000000	0.00000000000000	-0.06854600000000	0.00000000000000	-7.17488700000000	0.00000000000000	0.00000000000000	-17.69976000000000	0.00000000000000	
14.81495000000000	-7.22036500000000	79.14707500000000	-11.70050500000000	0.32068300000000	0.00000000000000	0.11346600000000	-54.46325100000000	773.24338200000000	-54.54301900000000	0.10680000000000	0.00000000000000	-0.06843500000000	0.00000000000000	-7.62258100000000	0.00000000000000	0.00000000000000	-17.63119700000000	0.00000000000000	
14.81661700000000	-7.08921800000000	86.23511400000000	-12.08806200000000	0.32416600000000	0.00000000000000	0.11396500000000	-55.14056000000000	769.96029099999998	-54.01708500000000	0.10615200000000	0.00000000000000	-0.06831900000000	0.00000000000000	-7.99917500000000	0.00000000000000	0.00000000000000	-17.56240700000000	0.00000000000000	
14.81828000000000	-6.81918300000000	93.18409400000000	-12.34733500000000	0.32739600000000	0.00000000000000	0.11443900000000	-55.82807000000000	766.52716499999997	-53.46260000000000	0.10551000000000	0.00000000000000	-0.06819800000000	0.00000000000000	-8.30660500000000	0.00000000000000	0.00000000000000	-17.49330700000000	0.00000000000000	
14.81994600000000	-6.42007900000000	100.01410500000000	-12.48778700000000	0.33040500000000	0.00000000000000	0.11488900000000	-56.52464200000000	762.94142799999997	-52.87970500000000	0.10487400000000	0.00000000000000	-0.06807200000000	0.00000000000000	-8.54968800000000	0.00000000000000	0.00000000000000	-17.42379900000000	0.00000000000000	
14.82161000000000	-5.90412000000000	106.75972400000001	-12.52188600000000	0.33321900000000	0.00000000000000	0.11532000000000	-57.22903600000000	759.20052799999996	-52.26858900000000	0.10424400000000	0.00000000000000	-0.06794100000000	0.00000000000000	-8.73529300000000	0.00000000000000	0.00000000000000	-17.35377100000000	0.00000000000000	
14.82327700000000	-5.28469100000000	113.46498000000000	-12.46371000000000	0.33585900000000	0.00000000000000	0.11573200000000	-57.93990900000000	755.30194600000004	-51.62949400000000	0.10362100000000	0.00000000000000	-0.06780500000000	0.00000000000000	-8.87149300000000	0.00000000000000	0.00000000000000	-17.28309900000000	0.00000000000000	
